
        <svg xmlns="http://www.w3.org/2000/svg" xmlns:xlink="http://www.w3.org/1999/xlink" version="1.1" width="3352.9411764705883" 
        height="2683.899904161082" viewBox="0 0 3352.9411764705883 2683.899904161082">
			
			<g transform="scale(17.647058823529413) translate(10, 10)">
				<defs id="SvgjsDefs1248"><linearGradient id="SvgjsLinearGradient1253"><stop id="SvgjsStop1254" stop-color="#7f00ff" offset="0"></stop><stop id="SvgjsStop1255" stop-color="#e100ff" offset="1"></stop></linearGradient><linearGradient id="SvgjsLinearGradient1256"><stop id="SvgjsStop1257" stop-color="#7f00ff" offset="0"></stop><stop id="SvgjsStop1258" stop-color="#e100ff" offset="1"></stop></linearGradient></defs><g id="SvgjsG1249" featureKey="aMgJeN-0" transform="matrix(1.243479823336915,0,0,1.243479823336915,20.843513198596455,-13.429578771589325)" fill="url(#SvgjsLinearGradient1253)"><path xmlns="http://www.w3.org/2000/svg" d="M16.1,44.1c0.6,0,1,0.4,1,1v1.2h1.2c0.6,0,1,0.4,1,1s-0.4,1-1,1h-1.2v1.2c0,0.6-0.4,1-1,1s-1-0.4-1-1v-1.2h-1.2  c-0.6,0-1-0.4-1-1s0.4-1,1-1h1.2v-1.2C15.1,44.6,15.6,44.1,16.1,44.1z"></path><path xmlns="http://www.w3.org/2000/svg" d="M49.9,20c-0.6,0-1-0.4-1-1v-1.2h-1.2c-0.6,0-1-0.4-1-1s0.4-1,1-1h1.2v-1.2c0-0.6,0.4-1,1-1s1,0.4,1,1v1.2H52  c0.6,0,1,0.4,1,1s-0.4,1-1,1h-1.2V19C50.9,19.5,50.4,20,49.9,20z"></path><path xmlns="http://www.w3.org/2000/svg" d="M23,71c-0.6,0-1-0.4-1-1v-1.2h-1.2c-0.6,0-1-0.4-1-1s0.4-1,1-1H22v-1.2c0-0.6,0.4-1,1-1s1,0.4,1,1v1.2h1.2c0.6,0,1,0.4,1,1  s-0.4,1-1,1H24V70C24,70.5,23.6,71,23,71z"></path><path xmlns="http://www.w3.org/2000/svg" d="M18.1,26.9c-0.6,0-1-0.4-1-1v-2.2h-2.2c-0.6,0-1-0.4-1-1s0.4-1,1-1h2.2v-2.2c0-0.6,0.4-1,1-1s1,0.4,1,1v2.2h2.2  c0.6,0,1,0.4,1,1s-0.4,1-1,1h-2.2v2.2C19.1,26.4,18.6,26.9,18.1,26.9z"></path><path xmlns="http://www.w3.org/2000/svg" d="M31.8,35.1c-0.6,0-1-0.4-1-1v-2.2h-2.2c-0.6,0-1-0.4-1-1s0.4-1,1-1h2.2v-2.2c0-0.6,0.4-1,1-1s1,0.4,1,1v2.2h2.2  c0.6,0,1,0.4,1,1s-0.4,1-1,1h-2.2v2.2C32.8,34.7,32.4,35.1,31.8,35.1z"></path><path xmlns="http://www.w3.org/2000/svg" d="M71.6,25.7c-0.6,0-1-0.4-1-1V23h-1.7c-0.6,0-1-0.4-1-1s0.4-1,1-1h1.7v-1.7c0-0.6,0.4-1,1-1s1,0.4,1,1V21h1.7  c0.6,0,1,0.4,1,1s-0.4,1-1,1h-1.7v1.7C72.6,25.2,72.2,25.7,71.6,25.7z"></path><circle xmlns="http://www.w3.org/2000/svg" cx="27.2" cy="15.7" r="1.2"></circle><circle xmlns="http://www.w3.org/2000/svg" cx="26.9" cy="49.4" r="1.2"></circle><circle xmlns="http://www.w3.org/2000/svg" cx="46.5" cy="28.1" r="1.2"></circle><path xmlns="http://www.w3.org/2000/svg" d="M91.5,90.6c0.3-0.3,0.4-0.7,0.2-1.1L67.4,31.9c-0.1-0.3-0.4-0.5-0.7-0.6c-0.3-0.1-0.7,0-0.9,0.3L32.4,64.9  c-0.2,0.2-0.3,0.6-0.3,0.9c0.1,0.3,0.3,0.6,0.6,0.7l57.6,24.3c0.1,0.1,0.3,0.1,0.4,0.1C91,90.9,91.3,90.8,91.5,90.6z M85.3,79.4  L83,85.5l-6.9-2.9l4.8-13.4L85.3,79.4z M79.8,66.5C79.8,66.5,79.8,66.5,79.8,66.5l-5.5,15.4l-7-3l8.2-22.8L79.8,66.5z M74.3,53.4  l-8.9,24.7l-7-2.9l11.4-32.3L74.3,53.4z M57.7,42.4l-9.9,28.3l-7.2-3L45.1,55L57.7,42.4z M34.9,65.2l6.9-6.9l-3,8.5L34.9,65.2z   M68.7,40.2L56.6,74.4l-7-2.9L61,39.1l5.1-5.1L68.7,40.2z M88.9,88l-4-1.7l1.6-4.2L88.9,88z"></path><path xmlns="http://www.w3.org/2000/svg" d="M46.1,41.1c-0.3,0-0.6-0.1-0.8-0.4c-0.3-0.5-8.4-11.6-6.2-29c0.1-0.5,0.6-0.9,1.1-0.9c0.5,0.1,0.9,0.6,0.9,1.1  c-2.1,16.5,5.7,27.4,5.8,27.5c0.3,0.4,0.2,1.1-0.2,1.4C46.5,41.1,46.3,41.1,46.1,41.1z"></path><path xmlns="http://www.w3.org/2000/svg" d="M11.4,39.5c-0.1-0.5,0.3-1.1,0.8-1.1c17.3-2.6,27.8,10.3,28,10.5c0.3,0.4,0.3,1.1-0.2,1.4c-0.2,0.1-0.4,0.2-0.6,0.2  c-0.3,0-0.6-0.1-0.8-0.4c-0.1-0.1-9.9-12.2-26.1-9.7C12,40.4,11.5,40,11.4,39.5z"></path><path xmlns="http://www.w3.org/2000/svg" d="M56.5,33.2c-0.1,0-0.2,0-0.2,0c-0.5,0-0.9-0.3-1-0.8C55.2,32,53,22.1,59.8,16c0.4-0.4,1-0.3,1.4,0.1s0.3,1-0.1,1.4  c-5.9,5.2-3.9,14.4-3.9,14.5C57.3,32.6,57,33.1,56.5,33.2z"></path><path xmlns="http://www.w3.org/2000/svg" d="M32.6,57.5c-0.2,0.5-0.7,0.8-1.2,0.7c-0.1,0-11.3-3.4-16.2,3.5c-0.2,0.3-0.5,0.4-0.8,0.4c-0.2,0-0.4-0.1-0.6-0.2  c-0.5-0.3-0.6-0.9-0.2-1.4c5.7-8,17.9-4.4,18.4-4.2C32.5,56.4,32.8,57,32.6,57.5z"></path></g><g id="SvgjsG1250" featureKey="8L6ael-0" transform="matrix(0.8058440823863086,0,0,0.8058440823863086,-1.3054678976288867,115.97077997232486)" fill="url(#SvgjsLinearGradient1256)"><path d="M12.18 12.18 q1.04 0.64 1.52 1.84 q0.28 0.64 0.28 1.58 q0 1.46 -0.78 2.45 t-2.28 1.47 q-0.94 0.32 -2.22 0.32 l-6.38 0 q-0.28 0 -0.49 -0.21 t-0.21 -0.49 l0 -1.44 q0 -0.3 0.21 -0.51 t0.49 -0.21 l6.54 0 q1.16 0 1.72 -0.42 q0.48 -0.4 0.48 -1.09 t-0.5 -1.13 q-0.62 -0.54 -1.86 -0.54 l-6.38 0 q-0.28 0 -0.49 -0.21 t-0.21 -0.51 l0 -1.38 q0 -0.28 0.21 -0.49 t0.49 -0.21 l6.02 0 q0.86 0 1.34 -0.3 q0.34 -0.2 0.54 -0.58 q0.14 -0.28 0.14 -0.65 t-0.1 -0.67 q-0.08 -0.24 -0.28 -0.44 q-0.44 -0.5 -1.46 -0.5 l-6.2 0 q-0.28 0 -0.49 -0.21 t-0.21 -0.51 l0 -1.44 q0 -0.28 0.21 -0.49 t0.49 -0.21 l6.02 0 q2.48 0 3.82 1.4 q1.14 1.14 1.14 2.86 q0 1.84 -1.12 2.92 z M20.396 10.94 q0.3 0 0.5 0.21 t0.2 0.51 l0 7.48 q0 0.28 -0.2 0.49 t-0.5 0.21 l-1.52 0 q-0.28 0 -0.49 -0.21 t-0.21 -0.49 l0 -7.48 q0 -0.3 0.21 -0.51 t0.49 -0.21 l1.52 0 z M20.396 5 q0.3 0 0.5 0.21 t0.2 0.49 l0 3.7 q0 0.3 -0.2 0.51 t-0.5 0.21 l-1.52 0 q-0.28 0 -0.49 -0.21 t-0.21 -0.51 l0 -3.7 q0 -0.28 0.21 -0.49 t0.49 -0.21 l1.52 0 z M35.572 14.1 l3.02 4.62 q0.22 0.36 0.02 0.72 q-0.08 0.16 -0.25 0.26 t-0.35 0.1 l-1.82 0 q-0.18 0 -0.34 -0.09 t-0.24 -0.23 l-3.04 -4.82 l-3.56 0 l0 4.44 q0 0.28 -0.21 0.49 t-0.49 0.21 l-1.52 0 q-0.28 0 -0.49 -0.21 t-0.21 -0.49 l0 -6.58 q0 -0.28 0.21 -0.49 t0.49 -0.21 l6.16 0 q1.76 0 2.34 -1 q0.2 -0.32 0.2 -0.92 q0 -0.94 -0.62 -1.48 q-0.64 -0.58 -1.84 -0.58 l-6.24 0 q-0.28 0 -0.49 -0.21 t-0.21 -0.49 l0 -1.44 q0 -0.28 0.21 -0.49 t0.49 -0.21 l6.42 0 q2.34 0 3.74 1.32 q1.46 1.32 1.46 3.58 q0 1.46 -0.64 2.49 t-1.86 1.57 z M44.188 5 q0.3 0 0.51 0.21 t0.21 0.51 l0 1.46 q0 0.3 -0.21 0.51 t-0.51 0.21 l-2.06 0 q-0.28 0 -0.49 -0.21 t-0.21 -0.51 l0 -1.46 q0 -0.3 0.21 -0.51 t0.49 -0.21 l2.06 0 z M53.128 5 q0.28 0 0.49 0.21 t0.21 0.51 l0 1.46 q0 0.3 -0.21 0.51 t-0.49 0.21 l-4.02 0 l0 11.36 q0 0.28 -0.21 0.49 t-0.49 0.21 l-1.54 0 q-0.3 0 -0.51 -0.21 t-0.21 -0.49 l0 -13.54 q0 -0.3 0.21 -0.51 t0.51 -0.21 l6.26 0 z M58.184000000000005 10.12 q-0.28 0 -0.49 -0.21 t-0.21 -0.49 l0 -3.72 q0 -0.28 0.21 -0.49 t0.49 -0.21 l1.52 0 q0.3 0 0.5 0.21 t0.2 0.49 l0 3.72 q0 0.28 -0.2 0.49 t-0.5 0.21 l-1.52 0 z M69.04400000000001 5 q0.28 0 0.49 0.21 t0.21 0.49 l0 13.44 q0 0.28 -0.21 0.49 t-0.49 0.21 l-1.52 0 q-0.3 0 -0.5 -0.21 t-0.2 -0.49 l0 -5.28 l-6.42 0 l0 5.28 q0 0.28 -0.2 0.49 t-0.5 0.21 l-1.52 0 q-0.28 0 -0.49 -0.21 t-0.21 -0.49 l0 -7.48 q0 -0.28 0.21 -0.49 t0.49 -0.21 l8.64 0 l0 -5.26 q0 -0.28 0.2 -0.49 t0.5 -0.21 l1.52 0 z M83.68 5.52 q1.22 0.46 2.2 1.48 q2.1 2.12 2.1 5.41 t-2.1 5.43 q-0.98 1.02 -2.2 1.48 q-1.26 0.52 -2.58 0.52 l-5.66 0 q-0.28 0 -0.49 -0.21 t-0.21 -0.49 l0 -1.44 q0 -0.3 0.21 -0.51 t0.49 -0.21 l5.6 0 q1.78 0 2.89 -1.3 t1.11 -3.26 t-1.11 -3.26 t-2.89 -1.3 l-5.6 0 q-0.28 0 -0.49 -0.21 t-0.21 -0.51 l0 -1.44 q0 -0.28 0.21 -0.49 t0.49 -0.21 l5.66 0 q1.32 0 2.58 0.52 z M105.316 18.86 q0.14 0.32 -0.07 0.65 t-0.57 0.33 l-13.32 0 q-0.18 0 -0.34 -0.09 t-0.24 -0.23 q-0.22 -0.32 -0.06 -0.66 l0.62 -1.46 q0.08 -0.2 0.26 -0.32 t0.38 -0.12 l9.32 0 l-3.28 -7.84 l-2.68 6.4 q-0.08 0.2 -0.25 0.31 t-0.39 0.11 l-1.68 0 q-0.38 0 -0.6 -0.32 q-0.08 -0.14 -0.1 -0.32 t0.04 -0.34 l4.06 -9.52 q0.08 -0.2 0.25 -0.32 t0.39 -0.12 l1.92 0 q0.22 0 0.39 0.12 t0.25 0.32 z M121.452 5.380000000000001 q0.1 0.18 0.09 0.38 t-0.13 0.36 l-5.54 8 l0 5.14 q0 0.28 -0.21 0.49 t-0.49 0.21 l-1.54 0 q-0.3 0 -0.51 -0.21 t-0.21 -0.49 l0 -5.86 q0 -0.2 0.14 -0.4 l5.34 -7.7 q0.1 -0.14 0.25 -0.22 t0.33 -0.08 l1.86 0 q0.2 0 0.37 0.1 t0.25 0.28 z M113.032 9.78 q-0.08 0.18 -0.25 0.28 t-0.37 0.1 l-1.86 0 q-0.36 0 -0.6 -0.3 l-2.6 -3.74 q-0.1 -0.16 -0.11 -0.36 t0.07 -0.38 t0.25 -0.28 t0.37 -0.1 l1.88 0 q0.34 0 0.58 0.3 l2.6 3.74 q0.1 0.16 0.11 0.36 t-0.07 0.38 z M141.444 12.18 q1.04 0.64 1.52 1.84 q0.28 0.64 0.28 1.58 q0 1.46 -0.78 2.45 t-2.28 1.47 q-0.94 0.32 -2.22 0.32 l-6.38 0 q-0.28 0 -0.49 -0.21 t-0.21 -0.49 l0 -1.44 q0 -0.3 0.21 -0.51 t0.49 -0.21 l6.54 0 q1.16 0 1.72 -0.42 q0.48 -0.4 0.48 -1.09 t-0.5 -1.13 q-0.62 -0.54 -1.86 -0.54 l-6.38 0 q-0.28 0 -0.49 -0.21 t-0.21 -0.51 l0 -1.38 q0 -0.28 0.21 -0.49 t0.49 -0.21 l6.02 0 q0.86 0 1.34 -0.3 q0.34 -0.2 0.54 -0.58 q0.14 -0.28 0.14 -0.65 t-0.1 -0.67 q-0.08 -0.24 -0.28 -0.44 q-0.44 -0.5 -1.46 -0.5 l-6.2 0 q-0.28 0 -0.49 -0.21 t-0.21 -0.51 l0 -1.44 q0 -0.28 0.21 -0.49 t0.49 -0.21 l6.02 0 q2.48 0 3.82 1.4 q1.14 1.14 1.14 2.86 q0 1.84 -1.12 2.92 z M152.6 17.06 q0.24 0.08 0.38 0.27 t0.14 0.43 l0 1.54 q0 0.32 -0.26 0.54 q-0.2 0.16 -0.44 0.16 q-0.1 0 -0.14 -0.02 q-1.86 -0.36 -3.2 -1.72 q-1.8 -1.84 -1.8 -4.84 l0 -7.7 q0 -0.3 0.21 -0.51 t0.49 -0.21 l1.54 0 q0.3 0 0.51 0.21 t0.21 0.51 l0 7.74 q0 1.9 1.08 2.9 q0.56 0.52 1.28 0.7 z M159.5 5 q0.3 0 0.51 0.21 t0.21 0.51 l0 7.7 q0 3 -1.8 4.84 q-1.34 1.36 -3.2 1.72 q-0.04 0.02 -0.14 0.02 q-0.24 0 -0.44 -0.16 q-0.26 -0.2 -0.26 -0.56 l0 -1.54 q0 -0.22 0.14 -0.41 t0.38 -0.27 q0.76 -0.22 1.28 -0.7 q1.08 -0.96 1.08 -2.9 l0 -7.74 q0 -0.3 0.21 -0.51 t0.51 -0.21 l1.52 0 z M173.99599999999998 5.52 q1.22 0.46 2.2 1.48 q2.1 2.12 2.1 5.41 t-2.1 5.43 q-0.98 1.02 -2.2 1.48 q-1.26 0.52 -2.58 0.52 l-5.66 0 q-0.28 0 -0.49 -0.21 t-0.21 -0.49 l0 -1.44 q0 -0.3 0.21 -0.51 t0.49 -0.21 l5.6 0 q1.78 0 2.89 -1.3 t1.11 -3.26 t-1.11 -3.26 t-2.89 -1.3 l-5.6 0 q-0.28 0 -0.49 -0.21 t-0.21 -0.51 l0 -1.44 q0 -0.28 0.21 -0.49 t0.49 -0.21 l5.66 0 q1.32 0 2.58 0.52 z M191.41199999999998 5.52 q1.22 0.46 2.2 1.48 q2.1 2.12 2.1 5.41 t-2.1 5.43 q-0.98 1.02 -2.2 1.48 q-1.26 0.52 -2.58 0.52 l-5.66 0 q-0.28 0 -0.49 -0.21 t-0.21 -0.49 l0 -1.44 q0 -0.3 0.21 -0.51 t0.49 -0.21 l5.6 0 q1.78 0 2.89 -1.3 t1.11 -3.26 t-1.11 -3.26 t-2.89 -1.3 l-5.6 0 q-0.28 0 -0.49 -0.21 t-0.21 -0.51 l0 -1.44 q0 -0.28 0.21 -0.49 t0.49 -0.21 l5.66 0 q1.32 0 2.58 0.52 z M212.48799999999997 5.380000000000001 q0.1 0.18 0.09 0.38 t-0.13 0.36 l-5.54 8 l0 5.14 q0 0.28 -0.21 0.49 t-0.49 0.21 l-1.54 0 q-0.3 0 -0.51 -0.21 t-0.21 -0.49 l0 -5.86 q0 -0.2 0.14 -0.4 l5.34 -7.7 q0.1 -0.14 0.25 -0.22 t0.33 -0.08 l1.86 0 q0.2 0 0.37 0.1 t0.25 0.28 z M204.06799999999998 9.78 q-0.08 0.18 -0.25 0.28 t-0.37 0.1 l-1.86 0 q-0.36 0 -0.6 -0.3 l-2.6 -3.74 q-0.1 -0.16 -0.11 -0.36 t0.07 -0.38 t0.25 -0.28 t0.37 -0.1 l1.88 0 q0.34 0 0.58 0.3 l2.6 3.74 q0.1 0.16 0.11 0.36 t-0.07 0.38 z"></path></g>
			</g>
		</svg>
	